<?xml version="1.0" encoding="UTF-8"?>
<svg id="Camada_1" data-name="Camada 1" xmlns="http://www.w3.org/2000/svg" width="300" height="10" viewBox="0 0 300 10">
  <defs>
    <style>
      .cls-1 {
        fill: #3e2723;
      }

      .cls-1, .cls-2 {
        stroke-width: 0px;
      }

      .cls-2 {
        fill: #fff;
      }
    </style>
  </defs>
  <rect class="cls-1" width="300" height="10"/>
  <g>
    <g>
      <path class="cls-2" d="M-2,5.33c0-.75.58-1.31,1.37-1.31s1.37.55,1.37,1.31-.58,1.3-1.37,1.3-1.37-.55-1.37-1.3ZM.26,5.33c0-.52-.38-.89-.89-.89s-.89.37-.89.89.38.89.89.89.89-.37.89-.89Z"/>
      <path class="cls-2" d="M5.06,5.33c0-.76.58-1.31,1.36-1.31.41,0,.77.15,1,.42l-.3.29c-.18-.2-.41-.3-.68-.3-.53,0-.91.37-.91.89s.38.89.91.89c.26,0,.49-.1.68-.3l.3.29c-.24.28-.59.42-1.01.42-.78,0-1.36-.55-1.36-1.3Z"/>
      <path class="cls-2" d="M9.47,6.02h-1.27l-.25.59h-.49l1.14-2.54h.46l1.15,2.54h-.49l-.25-.59ZM9.32,5.65l-.48-1.11-.47,1.11h.95Z"/>
      <path class="cls-2" d="M12.2,6.6l-.52-.74s-.07,0-.1,0h-.57v.74h-.47v-2.54h1.04c.67,0,1.08.34,1.08.9,0,.38-.2.67-.54.8l.58.83h-.51ZM11.57,4.46h-.55v1.01h.55c.41,0,.63-.19.63-.51s-.21-.5-.63-.5Z"/>
      <path class="cls-2" d="M13.19,4.06h1.11c.82,0,1.39.51,1.39,1.27s-.56,1.27-1.39,1.27h-1.11v-2.54ZM14.28,6.2c.57,0,.93-.34.93-.87s-.37-.87-.93-.87h-.62v1.74h.62Z"/>
      <path class="cls-2" d="M17.8,6.02h-1.27l-.25.59h-.49l1.14-2.54h.46l1.15,2.54h-.49l-.25-.59ZM17.65,5.65l-.48-1.11-.47,1.11h.95ZM17.26,3.86h-.39l.49-.5h.53l-.63.5Z"/>
      <path class="cls-2" d="M21,4.97c0,.56-.41.9-1.08.9h-.57v.73h-.47v-2.54h1.04c.67,0,1.08.34,1.08.9ZM20.52,4.97c0-.32-.21-.5-.63-.5h-.55v1.01h.55c.41,0,.63-.18.63-.5Z"/>
      <path class="cls-2" d="M21.47,4.06h.47v2.54h-.47v-2.54Z"/>
      <path class="cls-2" d="M22.45,5.33c0-.75.58-1.31,1.37-1.31s1.37.55,1.37,1.31-.58,1.3-1.37,1.3-1.37-.55-1.37-1.3ZM24.71,5.33c0-.52-.38-.89-.89-.89s-.89.37-.89.89.38.89.89.89.89-.37.89-.89Z"/>
      <path class="cls-2" d="M29.51,5.33c0-.76.58-1.31,1.36-1.31.41,0,.77.15,1,.42l-.3.29c-.18-.2-.41-.3-.68-.3-.53,0-.91.37-.91.89s.38.89.91.89c.26,0,.49-.1.68-.3l.3.29c-.24.28-.59.42-1.01.42-.78,0-1.36-.55-1.36-1.3Z"/>
      <path class="cls-2" d="M33.92,6.02h-1.27l-.25.59h-.49l1.14-2.54h.46l1.15,2.54h-.49l-.25-.59ZM33.76,5.65l-.48-1.11-.47,1.11h.95Z"/>
      <path class="cls-2" d="M36.65,6.6l-.52-.74s-.07,0-.1,0h-.57v.74h-.47v-2.54h1.04c.67,0,1.08.34,1.08.9,0,.38-.2.67-.54.8l.58.83h-.51ZM36.01,4.46h-.55v1.01h.55c.41,0,.63-.19.63-.51s-.21-.5-.63-.5Z"/>
      <path class="cls-2" d="M37.64,4.06h1.11c.82,0,1.39.51,1.39,1.27s-.56,1.27-1.39,1.27h-1.11v-2.54ZM38.73,6.2c.57,0,.93-.34.93-.87s-.37-.87-.93-.87h-.62v1.74h.62Z"/>
      <path class="cls-2" d="M42.25,6.02h-1.27l-.25.59h-.49l1.14-2.54h.46l1.15,2.54h-.49l-.25-.59ZM42.09,5.65l-.48-1.11-.47,1.11h.95ZM41.7,3.86h-.39l.49-.5h.53l-.63.5Z"/>
      <path class="cls-2" d="M45.44,4.97c0,.56-.41.9-1.08.9h-.57v.73h-.47v-2.54h1.04c.67,0,1.08.34,1.08.9ZM44.97,4.97c0-.32-.21-.5-.63-.5h-.55v1.01h.55c.41,0,.63-.18.63-.5Z"/>
      <path class="cls-2" d="M45.91,4.06h.47v2.54h-.47v-2.54Z"/>
      <path class="cls-2" d="M46.89,5.33c0-.75.58-1.31,1.37-1.31s1.37.55,1.37,1.31-.58,1.3-1.37,1.3-1.37-.55-1.37-1.3ZM49.15,5.33c0-.52-.38-.89-.89-.89s-.89.37-.89.89.38.89.89.89.89-.37.89-.89Z"/>
      <path class="cls-2" d="M53.95,5.33c0-.76.58-1.31,1.36-1.31.41,0,.77.15,1,.42l-.3.29c-.18-.2-.41-.3-.68-.3-.53,0-.91.37-.91.89s.38.89.91.89c.26,0,.49-.1.68-.3l.3.29c-.24.28-.59.42-1.01.42-.78,0-1.36-.55-1.36-1.3Z"/>
      <path class="cls-2" d="M58.36,6.02h-1.27l-.25.59h-.49l1.14-2.54h.46l1.15,2.54h-.49l-.25-.59ZM58.21,5.65l-.48-1.11-.47,1.11h.95Z"/>
      <path class="cls-2" d="M61.09,6.6l-.52-.74s-.07,0-.1,0h-.57v.74h-.47v-2.54h1.04c.67,0,1.08.34,1.08.9,0,.38-.2.67-.54.8l.58.83h-.51ZM60.46,4.46h-.55v1.01h.55c.41,0,.63-.19.63-.51s-.21-.5-.63-.5Z"/>
      <path class="cls-2" d="M62.08,4.06h1.11c.82,0,1.39.51,1.39,1.27s-.56,1.27-1.39,1.27h-1.11v-2.54ZM63.17,6.2c.57,0,.93-.34.93-.87s-.37-.87-.93-.87h-.62v1.74h.62Z"/>
      <path class="cls-2" d="M66.69,6.02h-1.27l-.25.59h-.49l1.14-2.54h.46l1.15,2.54h-.49l-.25-.59ZM66.53,5.65l-.48-1.11-.47,1.11h.95ZM66.15,3.86h-.39l.49-.5h.53l-.63.5Z"/>
      <path class="cls-2" d="M69.89,4.97c0,.56-.41.9-1.08.9h-.57v.73h-.47v-2.54h1.04c.67,0,1.08.34,1.08.9ZM69.41,4.97c0-.32-.21-.5-.63-.5h-.55v1.01h.55c.41,0,.63-.18.63-.5Z"/>
      <path class="cls-2" d="M70.36,4.06h.47v2.54h-.47v-2.54Z"/>
      <path class="cls-2" d="M71.34,5.33c0-.75.58-1.31,1.37-1.31s1.37.55,1.37,1.31-.58,1.3-1.37,1.3-1.37-.55-1.37-1.3ZM73.59,5.33c0-.52-.38-.89-.89-.89s-.89.37-.89.89.38.89.89.89.89-.37.89-.89Z"/>
      <path class="cls-2" d="M78.4,5.33c0-.76.58-1.31,1.36-1.31.41,0,.77.15,1,.42l-.3.29c-.18-.2-.41-.3-.68-.3-.53,0-.91.37-.91.89s.38.89.91.89c.26,0,.49-.1.68-.3l.3.29c-.24.28-.59.42-1.01.42-.78,0-1.36-.55-1.36-1.3Z"/>
      <path class="cls-2" d="M82.81,6.02h-1.27l-.25.59h-.49l1.14-2.54h.46l1.15,2.54h-.49l-.25-.59ZM82.65,5.65l-.48-1.11-.47,1.11h.95Z"/>
      <path class="cls-2" d="M85.54,6.6l-.52-.74s-.07,0-.1,0h-.57v.74h-.47v-2.54h1.04c.67,0,1.08.34,1.08.9,0,.38-.2.67-.54.8l.58.83h-.51ZM84.9,4.46h-.55v1.01h.55c.41,0,.63-.19.63-.51s-.21-.5-.63-.5Z"/>
      <path class="cls-2" d="M86.53,4.06h1.11c.82,0,1.39.51,1.39,1.27s-.56,1.27-1.39,1.27h-1.11v-2.54ZM87.62,6.2c.57,0,.93-.34.93-.87s-.37-.87-.93-.87h-.62v1.74h.62Z"/>
      <path class="cls-2" d="M91.14,6.02h-1.27l-.25.59h-.49l1.14-2.54h.46l1.15,2.54h-.49l-.25-.59ZM90.98,5.65l-.48-1.11-.47,1.11h.95ZM90.59,3.86h-.39l.49-.5h.53l-.63.5Z"/>
      <path class="cls-2" d="M94.33,4.97c0,.56-.41.9-1.08.9h-.57v.73h-.47v-2.54h1.04c.67,0,1.08.34,1.08.9ZM93.86,4.97c0-.32-.21-.5-.63-.5h-.55v1.01h.55c.41,0,.63-.18.63-.5Z"/>
      <path class="cls-2" d="M94.8,4.06h.47v2.54h-.47v-2.54Z"/>
      <path class="cls-2" d="M95.78,5.33c0-.75.58-1.31,1.37-1.31s1.37.55,1.37,1.31-.58,1.3-1.37,1.3-1.37-.55-1.37-1.3ZM98.04,5.33c0-.52-.38-.89-.89-.89s-.89.37-.89.89.38.89.89.89.89-.37.89-.89Z"/>
      <path class="cls-2" d="M102.84,5.33c0-.76.58-1.31,1.36-1.31.41,0,.77.15,1,.42l-.3.29c-.18-.2-.41-.3-.68-.3-.53,0-.91.37-.91.89s.38.89.91.89c.26,0,.49-.1.68-.3l.3.29c-.24.28-.59.42-1.01.42-.78,0-1.36-.55-1.36-1.3Z"/>
      <path class="cls-2" d="M107.25,6.02h-1.27l-.25.59h-.49l1.14-2.54h.46l1.15,2.54h-.49l-.25-.59ZM107.09,5.65l-.48-1.11-.47,1.11h.95Z"/>
      <path class="cls-2" d="M109.98,6.6l-.52-.74s-.07,0-.1,0h-.57v.74h-.47v-2.54h1.04c.67,0,1.08.34,1.08.9,0,.38-.2.67-.54.8l.58.83h-.51ZM109.34,4.46h-.55v1.01h.55c.41,0,.63-.19.63-.51s-.21-.5-.63-.5Z"/>
      <path class="cls-2" d="M110.97,4.06h1.11c.82,0,1.39.51,1.39,1.27s-.56,1.27-1.39,1.27h-1.11v-2.54ZM112.06,6.2c.57,0,.93-.34.93-.87s-.37-.87-.93-.87h-.62v1.74h.62Z"/>
      <path class="cls-2" d="M115.58,6.02h-1.27l-.25.59h-.49l1.14-2.54h.46l1.15,2.54h-.49l-.25-.59ZM115.42,5.65l-.48-1.11-.47,1.11h.95ZM115.04,3.86h-.39l.49-.5h.53l-.63.5Z"/>
      <path class="cls-2" d="M118.78,4.97c0,.56-.41.9-1.08.9h-.57v.73h-.47v-2.54h1.04c.67,0,1.08.34,1.08.9ZM118.3,4.97c0-.32-.21-.5-.63-.5h-.55v1.01h.55c.41,0,.63-.18.63-.5Z"/>
      <path class="cls-2" d="M119.25,4.06h.47v2.54h-.47v-2.54Z"/>
      <path class="cls-2" d="M120.22,5.33c0-.75.58-1.31,1.37-1.31s1.37.55,1.37,1.31-.58,1.3-1.37,1.3-1.37-.55-1.37-1.3ZM122.48,5.33c0-.52-.38-.89-.89-.89s-.89.37-.89.89.38.89.89.89.89-.37.89-.89Z"/>
      <path class="cls-2" d="M127.28,5.33c0-.76.58-1.31,1.36-1.31.41,0,.77.15,1,.42l-.3.29c-.18-.2-.41-.3-.68-.3-.53,0-.91.37-.91.89s.38.89.91.89c.26,0,.49-.1.68-.3l.3.29c-.24.28-.59.42-1.01.42-.78,0-1.36-.55-1.36-1.3Z"/>
      <path class="cls-2" d="M131.7,6.02h-1.27l-.25.59h-.49l1.14-2.54h.46l1.15,2.54h-.49l-.25-.59ZM131.54,5.65l-.48-1.11-.47,1.11h.95Z"/>
      <path class="cls-2" d="M134.43,6.6l-.52-.74s-.07,0-.1,0h-.57v.74h-.47v-2.54h1.04c.67,0,1.08.34,1.08.9,0,.38-.2.67-.54.8l.58.83h-.51ZM133.79,4.46h-.55v1.01h.55c.41,0,.63-.19.63-.51s-.21-.5-.63-.5Z"/>
      <path class="cls-2" d="M135.42,4.06h1.11c.82,0,1.39.51,1.39,1.27s-.56,1.27-1.39,1.27h-1.11v-2.54ZM136.51,6.2c.57,0,.93-.34.93-.87s-.37-.87-.93-.87h-.62v1.74h.62Z"/>
      <path class="cls-2" d="M140.02,6.02h-1.27l-.25.59h-.49l1.14-2.54h.46l1.15,2.54h-.49l-.25-.59ZM139.87,5.65l-.48-1.11-.47,1.11h.95ZM139.48,3.86h-.39l.49-.5h.53l-.63.5Z"/>
      <path class="cls-2" d="M143.22,4.97c0,.56-.41.9-1.08.9h-.57v.73h-.47v-2.54h1.04c.67,0,1.08.34,1.08.9ZM142.75,4.97c0-.32-.21-.5-.63-.5h-.55v1.01h.55c.41,0,.63-.18.63-.5Z"/>
      <path class="cls-2" d="M143.69,4.06h.47v2.54h-.47v-2.54Z"/>
      <path class="cls-2" d="M144.67,5.33c0-.75.58-1.31,1.37-1.31s1.37.55,1.37,1.31-.58,1.3-1.37,1.3-1.37-.55-1.37-1.3ZM146.93,5.33c0-.52-.38-.89-.89-.89s-.89.37-.89.89.38.89.89.89.89-.37.89-.89Z"/>
    </g>
    <g>
      <path class="cls-2" d="M152.6,5.33c0-.76.58-1.31,1.36-1.31.41,0,.77.15,1,.42l-.3.29c-.18-.2-.41-.3-.68-.3-.53,0-.91.37-.91.89s.38.89.91.89c.26,0,.49-.1.68-.3l.3.29c-.24.28-.59.42-1.01.42-.78,0-1.36-.55-1.36-1.3Z"/>
      <path class="cls-2" d="M157.01,6.02h-1.27l-.25.59h-.49l1.14-2.54h.46l1.15,2.54h-.49l-.25-.59ZM156.85,5.65l-.48-1.11-.48,1.11h.95Z"/>
      <path class="cls-2" d="M159.74,6.6l-.52-.74s-.07,0-.1,0h-.57v.74h-.47v-2.54h1.04c.67,0,1.08.34,1.08.9,0,.38-.2.67-.54.8l.58.83h-.51ZM159.1,4.46h-.55v1.01h.55c.41,0,.63-.19.63-.51s-.21-.5-.63-.5Z"/>
      <path class="cls-2" d="M160.73,4.06h1.11c.82,0,1.38.51,1.38,1.27s-.56,1.27-1.38,1.27h-1.11v-2.54ZM161.82,6.2c.57,0,.93-.34.93-.87s-.37-.87-.93-.87h-.62v1.74h.62Z"/>
      <path class="cls-2" d="M165.34,6.02h-1.27l-.25.59h-.49l1.14-2.54h.46l1.15,2.54h-.49l-.25-.59ZM165.18,5.65l-.48-1.11-.48,1.11h.95ZM164.79,3.86h-.39l.49-.5h.53l-.63.5Z"/>
      <path class="cls-2" d="M168.53,4.97c0,.56-.41.9-1.08.9h-.57v.73h-.47v-2.54h1.04c.67,0,1.08.34,1.08.9ZM168.06,4.97c0-.32-.21-.5-.63-.5h-.55v1.01h.55c.41,0,.63-.18.63-.5Z"/>
      <path class="cls-2" d="M169.01,4.06h.47v2.54h-.47v-2.54Z"/>
      <path class="cls-2" d="M169.98,5.33c0-.75.58-1.31,1.37-1.31s1.37.55,1.37,1.31-.58,1.3-1.37,1.3-1.37-.55-1.37-1.3ZM172.24,5.33c0-.52-.38-.89-.89-.89s-.89.37-.89.89.38.89.89.89.89-.37.89-.89Z"/>
      <path class="cls-2" d="M177.04,5.33c0-.76.58-1.31,1.36-1.31.41,0,.77.15,1,.42l-.3.29c-.18-.2-.41-.3-.68-.3-.53,0-.91.37-.91.89s.38.89.91.89c.26,0,.49-.1.68-.3l.3.29c-.24.28-.59.42-1.01.42-.78,0-1.36-.55-1.36-1.3Z"/>
      <path class="cls-2" d="M181.45,6.02h-1.27l-.25.59h-.49l1.14-2.54h.46l1.15,2.54h-.49l-.25-.59ZM181.29,5.65l-.48-1.11-.48,1.11h.95Z"/>
      <path class="cls-2" d="M184.18,6.6l-.52-.74s-.07,0-.1,0h-.57v.74h-.47v-2.54h1.04c.67,0,1.08.34,1.08.9,0,.38-.2.67-.54.8l.58.83h-.51ZM183.54,4.46h-.55v1.01h.55c.41,0,.63-.19.63-.51s-.21-.5-.63-.5Z"/>
      <path class="cls-2" d="M185.17,4.06h1.11c.82,0,1.38.51,1.38,1.27s-.56,1.27-1.38,1.27h-1.11v-2.54ZM186.26,6.2c.57,0,.93-.34.93-.87s-.37-.87-.93-.87h-.62v1.74h.62Z"/>
      <path class="cls-2" d="M189.78,6.02h-1.27l-.25.59h-.49l1.14-2.54h.46l1.15,2.54h-.49l-.25-.59ZM189.62,5.65l-.48-1.11-.48,1.11h.95ZM189.24,3.86h-.39l.49-.5h.53l-.63.5Z"/>
      <path class="cls-2" d="M192.98,4.97c0,.56-.41.9-1.08.9h-.57v.73h-.47v-2.54h1.04c.67,0,1.08.34,1.08.9ZM192.5,4.97c0-.32-.21-.5-.63-.5h-.55v1.01h.55c.41,0,.63-.18.63-.5Z"/>
      <path class="cls-2" d="M193.45,4.06h.47v2.54h-.47v-2.54Z"/>
      <path class="cls-2" d="M194.42,5.33c0-.75.58-1.31,1.37-1.31s1.37.55,1.37,1.31-.58,1.3-1.37,1.3-1.37-.55-1.37-1.3ZM196.68,5.33c0-.52-.38-.89-.89-.89s-.89.37-.89.89.38.89.89.89.89-.37.89-.89Z"/>
      <path class="cls-2" d="M201.48,5.33c0-.76.58-1.31,1.36-1.31.41,0,.77.15,1,.42l-.3.29c-.18-.2-.41-.3-.68-.3-.53,0-.91.37-.91.89s.38.89.91.89c.26,0,.49-.1.68-.3l.3.29c-.24.28-.59.42-1.01.42-.78,0-1.36-.55-1.36-1.3Z"/>
      <path class="cls-2" d="M205.89,6.02h-1.27l-.25.59h-.49l1.14-2.54h.46l1.15,2.54h-.49l-.25-.59ZM205.74,5.65l-.48-1.11-.47,1.11h.95Z"/>
      <path class="cls-2" d="M208.63,6.6l-.52-.74s-.07,0-.1,0h-.57v.74h-.47v-2.54h1.04c.67,0,1.08.34,1.08.9,0,.38-.2.67-.54.8l.58.83h-.51ZM207.99,4.46h-.55v1.01h.55c.41,0,.63-.19.63-.51s-.21-.5-.63-.5Z"/>
      <path class="cls-2" d="M209.62,4.06h1.11c.82,0,1.39.51,1.39,1.27s-.56,1.27-1.39,1.27h-1.11v-2.54ZM210.71,6.2c.57,0,.93-.34.93-.87s-.37-.87-.93-.87h-.62v1.74h.62Z"/>
      <path class="cls-2" d="M214.22,6.02h-1.27l-.25.59h-.49l1.14-2.54h.46l1.15,2.54h-.49l-.25-.59ZM214.07,5.65l-.48-1.11-.47,1.11h.95ZM213.68,3.86h-.39l.49-.5h.53l-.63.5Z"/>
      <path class="cls-2" d="M217.42,4.97c0,.56-.41.9-1.08.9h-.57v.73h-.47v-2.54h1.04c.67,0,1.08.34,1.08.9ZM216.94,4.97c0-.32-.21-.5-.63-.5h-.55v1.01h.55c.41,0,.63-.18.63-.5Z"/>
      <path class="cls-2" d="M217.89,4.06h.47v2.54h-.47v-2.54Z"/>
      <path class="cls-2" d="M218.87,5.33c0-.75.58-1.31,1.37-1.31s1.37.55,1.37,1.31-.58,1.3-1.37,1.3-1.37-.55-1.37-1.3ZM221.13,5.33c0-.52-.38-.89-.89-.89s-.89.37-.89.89.38.89.89.89.89-.37.89-.89Z"/>
      <path class="cls-2" d="M225.93,5.33c0-.76.58-1.31,1.36-1.31.41,0,.77.15,1,.42l-.3.29c-.18-.2-.41-.3-.68-.3-.53,0-.91.37-.91.89s.38.89.91.89c.26,0,.49-.1.68-.3l.3.29c-.24.28-.59.42-1.01.42-.78,0-1.36-.55-1.36-1.3Z"/>
      <path class="cls-2" d="M230.34,6.02h-1.27l-.25.59h-.49l1.14-2.54h.46l1.15,2.54h-.49l-.25-.59ZM230.18,5.65l-.48-1.11-.47,1.11h.95Z"/>
      <path class="cls-2" d="M233.07,6.6l-.52-.74s-.07,0-.1,0h-.57v.74h-.47v-2.54h1.04c.67,0,1.08.34,1.08.9,0,.38-.2.67-.54.8l.58.83h-.51ZM232.43,4.46h-.55v1.01h.55c.41,0,.63-.19.63-.51s-.21-.5-.63-.5Z"/>
      <path class="cls-2" d="M234.06,4.06h1.11c.82,0,1.39.51,1.39,1.27s-.56,1.27-1.39,1.27h-1.11v-2.54ZM235.15,6.2c.57,0,.93-.34.93-.87s-.37-.87-.93-.87h-.62v1.74h.62Z"/>
      <path class="cls-2" d="M238.67,6.02h-1.27l-.25.59h-.49l1.14-2.54h.46l1.15,2.54h-.49l-.25-.59ZM238.51,5.65l-.48-1.11-.47,1.11h.95ZM238.12,3.86h-.39l.49-.5h.53l-.63.5Z"/>
      <path class="cls-2" d="M241.86,4.97c0,.56-.41.9-1.08.9h-.57v.73h-.47v-2.54h1.04c.67,0,1.08.34,1.08.9ZM241.39,4.97c0-.32-.21-.5-.63-.5h-.55v1.01h.55c.41,0,.63-.18.63-.5Z"/>
      <path class="cls-2" d="M242.34,4.06h.47v2.54h-.47v-2.54Z"/>
      <path class="cls-2" d="M243.31,5.33c0-.75.58-1.31,1.37-1.31s1.37.55,1.37,1.31-.58,1.3-1.37,1.3-1.37-.55-1.37-1.3ZM245.57,5.33c0-.52-.38-.89-.89-.89s-.89.37-.89.89.38.89.89.89.89-.37.89-.89Z"/>
      <path class="cls-2" d="M250.37,5.33c0-.76.58-1.31,1.36-1.31.41,0,.77.15,1,.42l-.3.29c-.18-.2-.41-.3-.68-.3-.53,0-.91.37-.91.89s.38.89.91.89c.26,0,.49-.1.68-.3l.3.29c-.24.28-.59.42-1.01.42-.78,0-1.36-.55-1.36-1.3Z"/>
      <path class="cls-2" d="M254.78,6.02h-1.27l-.25.59h-.49l1.14-2.54h.46l1.15,2.54h-.49l-.25-.59ZM254.63,5.65l-.48-1.11-.47,1.11h.95Z"/>
      <path class="cls-2" d="M257.52,6.6l-.52-.74s-.07,0-.1,0h-.57v.74h-.47v-2.54h1.04c.67,0,1.08.34,1.08.9,0,.38-.2.67-.54.8l.58.83h-.51ZM256.88,4.46h-.55v1.01h.55c.41,0,.63-.19.63-.51s-.21-.5-.63-.5Z"/>
      <path class="cls-2" d="M258.51,4.06h1.11c.82,0,1.39.51,1.39,1.27s-.56,1.27-1.39,1.27h-1.11v-2.54ZM259.59,6.2c.57,0,.93-.34.93-.87s-.37-.87-.93-.87h-.62v1.74h.62Z"/>
      <path class="cls-2" d="M263.11,6.02h-1.27l-.25.59h-.49l1.14-2.54h.46l1.15,2.54h-.49l-.25-.59ZM262.96,5.65l-.48-1.11-.47,1.11h.95ZM262.57,3.86h-.39l.49-.5h.53l-.63.5Z"/>
      <path class="cls-2" d="M266.31,4.97c0,.56-.41.9-1.08.9h-.57v.73h-.47v-2.54h1.04c.67,0,1.08.34,1.08.9ZM265.83,4.97c0-.32-.21-.5-.63-.5h-.55v1.01h.55c.41,0,.63-.18.63-.5Z"/>
      <path class="cls-2" d="M266.78,4.06h.47v2.54h-.47v-2.54Z"/>
      <path class="cls-2" d="M267.76,5.33c0-.75.58-1.31,1.37-1.31s1.37.55,1.37,1.31-.58,1.3-1.37,1.3-1.37-.55-1.37-1.3ZM270.02,5.33c0-.52-.38-.89-.89-.89s-.89.37-.89.89.38.89.89.89.89-.37.89-.89Z"/>
      <path class="cls-2" d="M274.82,5.33c0-.76.58-1.31,1.36-1.31.41,0,.77.15,1,.42l-.3.29c-.18-.2-.41-.3-.68-.3-.53,0-.91.37-.91.89s.38.89.91.89c.26,0,.49-.1.68-.3l.3.29c-.24.28-.59.42-1.01.42-.78,0-1.36-.55-1.36-1.3Z"/>
      <path class="cls-2" d="M279.23,6.02h-1.27l-.25.59h-.49l1.14-2.54h.46l1.15,2.54h-.49l-.25-.59ZM279.07,5.65l-.48-1.11-.47,1.11h.95Z"/>
      <path class="cls-2" d="M281.96,6.6l-.52-.74s-.07,0-.1,0h-.57v.74h-.47v-2.54h1.04c.67,0,1.08.34,1.08.9,0,.38-.2.67-.54.8l.58.83h-.51ZM281.32,4.46h-.55v1.01h.55c.41,0,.63-.19.63-.51s-.21-.5-.63-.5Z"/>
      <path class="cls-2" d="M282.95,4.06h1.11c.82,0,1.39.51,1.39,1.27s-.56,1.27-1.39,1.27h-1.11v-2.54ZM284.04,6.2c.57,0,.93-.34.93-.87s-.37-.87-.93-.87h-.62v1.74h.62Z"/>
      <path class="cls-2" d="M287.56,6.02h-1.27l-.25.59h-.49l1.14-2.54h.46l1.15,2.54h-.49l-.25-.59ZM287.4,5.65l-.48-1.11-.47,1.11h.95ZM287.01,3.86h-.39l.49-.5h.53l-.63.5Z"/>
      <path class="cls-2" d="M290.75,4.97c0,.56-.41.9-1.08.9h-.57v.73h-.47v-2.54h1.04c.67,0,1.08.34,1.08.9ZM290.28,4.97c0-.32-.21-.5-.63-.5h-.55v1.01h.55c.41,0,.63-.18.63-.5Z"/>
      <path class="cls-2" d="M291.23,4.06h.47v2.54h-.47v-2.54Z"/>
      <path class="cls-2" d="M292.2,5.33c0-.75.58-1.31,1.37-1.31s1.37.55,1.37,1.31-.58,1.3-1.37,1.3-1.37-.55-1.37-1.3ZM294.46,5.33c0-.52-.38-.89-.89-.89s-.89.37-.89.89.38.89.89.89.89-.37.89-.89Z"/>
      <path class="cls-2" d="M299.26,5.33c0-.76.58-1.31,1.36-1.31.41,0,.77.15,1,.42l-.3.29c-.18-.2-.41-.3-.68-.3-.53,0-.91.37-.91.89s.38.89.91.89c.26,0,.49-.1.68-.3l.3.29c-.24.28-.59.42-1.01.42-.78,0-1.36-.55-1.36-1.3Z"/>
    </g>
  </g>
</svg>